<svg width="24" height="24" viewBox="0 0 24 24" fill="none" xmlns="http://www.w3.org/2000/svg">
<path fill-rule="evenodd" clip-rule="evenodd" d="M11.9609 4.79596L10.8889 3.69404C8.37259 1.10746 3.75861 2.00006 2.09303 5.25197C1.31108 6.78149 1.13465 8.98981 2.5625 11.8081C3.93802 14.5218 6.79971 17.7722 11.9609 21.3127C17.1221 17.7722 19.9823 14.5218 21.3593 11.8081C22.7872 8.98831 22.6122 6.78149 21.8288 5.25197C20.1632 2.00006 15.5492 1.10597 13.0329 3.69255L11.9609 4.79596ZM11.9609 23.1143C-10.964 7.96564 4.90239 -3.85788 11.6978 2.39627C11.7875 2.4785 11.8757 2.56372 11.9609 2.65193C12.0453 2.5638 12.133 2.47901 12.2241 2.39776C19.0179 -3.86087 34.8858 7.96414 11.9609 23.1143Z" fill="black"/>
</svg>
