<svg width="42" height="39" viewBox="0 0 42 39" fill="none" xmlns="http://www.w3.org/2000/svg">
<path fill-rule="evenodd" clip-rule="evenodd" d="M21.0004 7.1449L19.1182 5.22871C14.7002 0.730724 6.59917 2.28292 3.67484 7.9379C2.30192 10.5977 1.99216 14.4379 4.49911 19.3389C6.91418 24.0578 11.9386 29.7102 21.0004 35.867C30.0621 29.7102 35.0839 24.0578 37.5016 19.3389C40.0086 14.4353 39.7014 10.5977 38.3259 7.9379C35.4016 2.28292 27.3006 0.728124 22.8825 5.22611L21.0004 7.1449ZM21.0004 39C-19.25 12.6569 8.60736 -7.90385 20.5383 2.97192C20.6959 3.11492 20.8507 3.26312 21.0004 3.41652C21.1485 3.26326 21.3026 3.11581 21.4624 2.97452C33.3907 -7.90905 61.2507 12.6543 21.0004 39Z" fill="black"/>
</svg>
